<svg version="1.1" id="Uploaded to svgrepo.com" xmlns="http://www.w3.org/2000/svg" xmlns:xlink="http://www.w3.org/1999/xlink" x="0px" y="0px"
	 width="128px" height="128px" viewBox="0 0 32 32" style="enable-background:new 0 0 32 32;" xml:space="preserve">
<style type="text/css">
	.avocado_vier{fill:#AF9480;}
	.avocado_zeventien{fill:#CC4121;}
	.avocado_een{fill:#231F20;}
	.avocado_zes{fill:#FFFAEE;}
	.avocado_twintig{fill:#EAD13F;}
	.avocado_drie{fill:#716558;}
	.avocado_negen{fill:#6F9B45;}
	.avocado_elf{fill:#0E608E;}
	.avocado_veertien{fill:#BF63C1;}
	.avocado_twaalf{fill:#248EBC;}
	.st0{fill:#A3AEB5;}
	.st1{fill:#DBD2C1;}
	.st2{fill:#788287;}
	.st3{fill:#C3CC6A;}
	.st4{fill:#D1712A;}
	.st5{fill:#E0A838;}
	.st6{fill:#E598A3;}
	.st7{fill:#FFFAEE;}
	.st8{fill:#3D3935;}
</style>
<g>
	<path class="avocado_vier" d="M0.5,4.5v23h31v-23H0.5z"/>
	<path class="avocado_zes" d="M4,25.5h2v-19H4C3.173,6.5,2.5,7.173,2.5,8v16C2.5,24.827,3.173,25.5,4,25.5z"/>
	<g>
		<rect x="6" y="6.5" class="avocado_twintig" width="3" height="19"/>
	</g>
	<rect x="9" y="6.5" class="avocado_twaalf" width="3" height="19"/>
	<rect x="12" y="6.5" class="avocado_negen" width="3" height="19"/>
	<rect x="15" y="6.5" class="avocado_veertien" width="3" height="19"/>
	<rect x="18.001" y="6.5" class="avocado_zeventien" width="3" height="19"/>
	<path class="avocado_elf" d="M23,6.5h-2v19h2c0.827,0,1.5-0.673,1.5-1.5V8C24.5,7.173,23.827,6.5,23,6.5z"/>
	<path class="avocado_een" d="M0,4v24h32V4H0z M31,27H1V5h30V27z M4,26h19c1.105,0,2-0.895,2-2V8c0-1.105-0.895-2-2-2H4
		C2.895,6,2,6.895,2,8v16C2,25.105,2.895,26,4,26z M3,8c0-0.551,0.449-1,1-1h19c0.551,0,1,0.449,1,1v16c0,0.551-0.449,1-1,1H4
		c-0.551,0-1-0.449-1-1V8z"/>
	<path class="avocado_drie" d="M30,9c0,1.105-0.895,2-2,2s-2-0.895-2-2s0.895-2,2-2S30,7.895,30,9z M28,12
		c-1.105,0-2,0.895-2,2s0.895,2,2,2s2-0.895,2-2S29.105,12,28,12z"/>
</g>
</svg>