<svg version="1.1" id="Uploaded to svgrepo.com" xmlns="http://www.w3.org/2000/svg" xmlns:xlink="http://www.w3.org/1999/xlink" x="0px" y="0px"
	 width="128px" height="128px" viewBox="0 0 32 32" style="enable-background:new 0 0 32 32;" xml:space="preserve">
<style type="text/css">
	.avocado_een{fill:#231F20;}
	.avocado_vijf{fill:#DBD2C1;}
	.avocado_zes{fill:#FFFAEE;}
	.st0{fill:#E0A838;}
	.st1{fill:#EAD13F;}
	.st2{fill:#788287;}
	.st3{fill:#3D3935;}
	.st4{fill:#6F9B45;}
	.st5{fill:#CC4121;}
	.st6{fill:#E598A3;}
	.st7{fill:#D36781;}
	.st8{fill:#8D3E93;}
	.st9{fill:#BF63C1;}
	.st10{fill:#A3AEB5;}
	.st11{fill:#AF9480;}
	.st12{fill:#716558;}
	.st13{fill:#0E608E;}
	.st14{fill:#248EBC;}
	.st15{fill:#D1712A;}
	.st16{fill:#C3CC6A;}
</style>
<g>
	<g>
		<path class="avocado_vijf" d="M16,29.456c-1.04,0-2.038-0.441-2.738-1.211l-4.292-4.721C7.377,21.772,6.5,19.502,6.5,17.134
			V5.046c0-0.713,0.507-1.332,1.206-1.471l2.509-0.501C12.115,2.693,14.062,2.5,16,2.5c1.938,0,3.885,0.193,5.786,0.573l2.508,0.501
			c0.699,0.14,1.206,0.758,1.206,1.471v12.088c0,2.369-0.877,4.638-2.471,6.391l-4.292,4.721C18.038,29.015,17.04,29.456,16,29.456z
			"/>
	</g>
	<path class="avocado_zes" d="M24,18c0,1.105-0.889,1.5-2.5,1.5S19,19.105,19,18s0.889-1.5,2.5-1.5S24,16.895,24,18z
		 M10.5,16.5C8.889,16.5,8,16.895,8,18s0.889,1.5,2.5,1.5S13,19.105,13,18S12.111,16.5,10.5,16.5z"/>
	<path class="avocado_een" d="M24.392,3.084l-2.509-0.502C19.941,2.194,17.971,2,16,2c-1.971,0-3.942,0.194-5.883,0.583
		L7.608,3.084C6.673,3.271,6,4.092,6,5.045v12.088c0,2.488,0.927,4.886,2.601,6.727l4.292,4.721c0.833,0.917,1.97,1.375,3.108,1.375
		s2.275-0.458,3.108-1.375l4.292-4.721C25.073,22.02,26,19.622,26,17.134V5.045C26,4.092,25.327,3.271,24.392,3.084z M25,17.134
		c0,2.244-0.831,4.394-2.341,6.054l-4.292,4.721c-0.365,0.401-0.816,0.68-1.308,0.853L18,25l-1-2h-2l-1,2l0.94,3.762
		c-0.493-0.173-0.943-0.452-1.308-0.853l-4.292-4.721C7.831,21.528,7,19.378,7,17.134V5.045C7,4.57,7.338,4.158,7.804,4.065
		l2.509-0.502C12.181,3.19,14.095,3,16.001,3c1.905,0,3.818,0.189,5.687,0.563l2.509,0.502C24.662,4.158,25,4.57,25,5.045V17.134z
		 M9.732,14.268L9,13.536l0.732-0.732c0.976-0.976,2.559-0.976,3.536,0L14,13.536l-0.732,0.732
		C12.291,15.244,10.709,15.244,9.732,14.268z M22.268,12.803L23,13.536l-0.732,0.732c-0.976,0.976-2.559,0.976-3.536,0L18,13.536
		l0.732-0.732C19.709,11.827,21.291,11.827,22.268,12.803z M9.312,11.926l-0.625-0.78l0.626-0.501c1.287-1.03,3.085-1.03,4.373,0
		l0.626,0.501l-0.625,0.78l-0.626-0.501c-0.919-0.735-2.204-0.736-3.123,0L9.312,11.926z M22.687,10.644l0.626,0.501l-0.625,0.78
		l-0.626-0.501c-0.919-0.735-2.204-0.736-3.123,0l-0.626,0.5l-0.625-0.78l0.626-0.501C19.601,9.614,21.398,9.615,22.687,10.644z
		 M22.247,19.46l-2.04,2.04h-3.516L16,20.118L15.309,21.5h-3.516l-2.04-2.04c0.231,0.024,0.475,0.04,0.747,0.04
		c0.244,0,0.465-0.013,0.675-0.032l1.032,1.032h2.484l0.75-1.5h1.118l0.75,1.5h2.484l1.032-1.032
		c0.21,0.019,0.431,0.032,0.675,0.032C21.773,19.5,22.017,19.484,22.247,19.46z"/>
</g>
</svg>